<?xml version="1.0" encoding="UTF-8" standalone="no"?>
<svg
   xmlns:osb="http://www.openswatchbook.org/uri/2009/osb"
   xmlns:dc="http://purl.org/dc/elements/1.1/"
   xmlns:cc="http://creativecommons.org/ns#"
   xmlns:rdf="http://www.w3.org/1999/02/22-rdf-syntax-ns#"
   xmlns:svg="http://www.w3.org/2000/svg"
   xmlns="http://www.w3.org/2000/svg"
   xmlns:sodipodi="http://sodipodi.sourceforge.net/DTD/sodipodi-0.dtd"
   xmlns:inkscape="http://www.inkscape.org/namespaces/inkscape"
   width="240.74387"
   height="129.87267"
   viewBox="0 0 240.74387 129.87267"
   version="1.1"
   id="SVGRoot"
   inkscape:version="1.0.2 (e86c870879, 2021-01-15, custom)"
   sodipodi:docname="DNAsequence1.svg"
   inkscape:export-filename="C:\Users\Christa\Documents\100DaysOfCode\100DaysOfCode_Projects\CommunicationBoard1\assets\girl2.png"
   inkscape:export-xdpi="102.98851"
   inkscape:export-ydpi="102.98851">
  <defs
     id="defs2">
    <linearGradient
       id="linearGradient1518"
       osb:paint="gradient">
      <stop
         style="stop-color:#ff2a2a;stop-opacity:1;"
         offset="0"
         id="stop1514" />
      <stop
         style="stop-color:#ff2a2a;stop-opacity:0;"
         offset="1"
         id="stop1516" />
    </linearGradient>
  </defs>
  <sodipodi:namedview
     id="base"
     pagecolor="#ffffff"
     bordercolor="#666666"
     borderopacity="1.0"
     inkscape:pageopacity="0.0"
     inkscape:pageshadow="2"
     inkscape:zoom="0.98994949"
     inkscape:cx="140.90582"
     inkscape:cy="-0.26876972"
     inkscape:document-units="px"
     inkscape:current-layer="layer1"
     inkscape:document-rotation="0"
     showgrid="false"
     units="px"
     inkscape:window-width="1366"
     inkscape:window-height="705"
     inkscape:window-x="-8"
     inkscape:window-y="-8"
     inkscape:window-maximized="1" />
  <metadata
     id="metadata5">
    <rdf:RDF>
      <cc:Work
         rdf:about="">
        <dc:format>image/svg+xml</dc:format>
        <dc:type
           rdf:resource="http://purl.org/dc/dcmitype/StillImage" />
        <dc:title></dc:title>
      </cc:Work>
    </rdf:RDF>
  </metadata>
  <g
     inkscape:label="Layer 1"
     inkscape:groupmode="layer"
     id="layer1"
     style="display:inline"
     transform="translate(-18.392368,-18.192577)">
    <g
       id="g486">
      <path
         id="rect833"
         style="fill:#9f9f9f;fill-opacity:1;fill-rule:evenodd;stroke:#31393c;stroke-width:1.88532;stroke-linecap:round;stroke-linejoin:round;stroke-miterlimit:4;stroke-dasharray:none;stroke-opacity:1;paint-order:stroke fill markers"
         d="M 19.335028,44.821289 H 258.1787 V 59.941398 H 19.335028 Z" />
      <path
         id="rect833-9"
         style="display:inline;fill:#9f9f9f;fill-opacity:1;fill-rule:evenodd;stroke:#31393c;stroke-width:1.89248;stroke-linecap:round;stroke-linejoin:round;stroke-opacity:1;paint-order:stroke fill markers"
         d="M 20.415348,131.82269 H 258.18999 V 147.119 H 20.415348 Z" />
      <path
         id="rect855-0"
         style="display:inline;fill:#f79824;fill-opacity:1;fill-rule:evenodd;stroke:#31393c;stroke-width:2.5;stroke-linecap:round;stroke-linejoin:round;stroke-opacity:1;paint-order:stroke fill markers"
         d="m 30,95.964493 h 2.812454 c 2.586496,10.963837 9.700167,10.684887 12.758975,0 h 2.915893 V 130.50042 H 30 Z"
         sodipodi:nodetypes="ccccccc" />
      <path
         id="rect855-0-7"
         style="display:inline;fill:#fdca40;fill-opacity:1;fill-rule:evenodd;stroke:#31393c;stroke-width:2.49466;stroke-linecap:round;stroke-linejoin:round;stroke-opacity:1;paint-order:stroke fill markers"
         d="m 48.384422,96.017442 -2.7968,-0.008 c -5.052201,12.025338 -9.364604,8.744118 -12.687958,-0.03663 L 30,95.964493 l 0.09839,-34.580662 18.38442,0.05303 -0.05549,19.501801 z"
         sodipodi:nodetypes="cccccccc" />
      <g
         aria-label="A"
         id="text1131-7-1-9"
         style="font-style:normal;font-variant:normal;font-weight:normal;font-stretch:normal;font-size:13.3333px;line-height:1.25;font-family:sans-serif;-inkscape-font-specification:'sans-serif, Normal';font-variant-ligatures:normal;font-variant-caps:normal;font-variant-numeric:normal;font-variant-east-asian:normal;display:inline"
         inkscape:transform-center-x="-45.961941"
         inkscape:transform-center-y="-26.769042">
        <path
           d="m 38.890868,112.6031 -1.78385,4.83723 h 3.57421 z m -0.742186,-1.29557 h 1.490882 l 3.704418,9.72003 h -1.367185 l -0.885414,-2.49349 h -4.381499 l -0.885415,2.49349 h -1.386715 z"
           id="path1816" />
      </g>
      <g
         id="g364"
         transform="translate(-135.84815,3.331795)">
        <path
           id="rect855-0-3"
           style="display:inline;fill:#f79824;fill-opacity:1;fill-rule:evenodd;stroke:#31393c;stroke-width:2.5;stroke-linecap:round;stroke-linejoin:round;stroke-opacity:1;paint-order:stroke fill markers"
           d="m 279.60783,92.481908 h 2.81245 c 2.5865,10.963832 9.70017,10.684882 12.75898,0 h 2.91589 v 34.535922 h -18.48732 z"
           sodipodi:nodetypes="ccccccc" />
        <path
           id="rect855-0-7-2"
           style="display:inline;fill:#fdca40;fill-opacity:1;fill-rule:evenodd;stroke:#31393c;stroke-width:2.495;stroke-linecap:round;stroke-linejoin:round;stroke-miterlimit:4;stroke-dasharray:none;stroke-opacity:1;paint-order:stroke fill markers"
           d="m 297.99225,92.534858 -2.7968,-0.008 c -5.0522,12.025332 -9.3646,8.744112 -12.68796,-0.0366 l -2.89966,-0.008 0.0984,-34.580665 18.38442,0.05303 -0.0555,19.501805 z"
           sodipodi:nodetypes="cccccccc" />
        <g
           aria-label="A"
           id="text1131-7-1"
           style="font-style:normal;font-variant:normal;font-weight:normal;font-stretch:normal;font-size:13.3333px;line-height:1.25;font-family:sans-serif;-inkscape-font-specification:'sans-serif, Normal';font-variant-ligatures:normal;font-variant-caps:normal;font-variant-numeric:normal;font-variant-east-asian:normal;display:inline"
           transform="translate(221.22341,-3.5355339)">
          <path
             d="m 67.680213,112.6031 -1.78385,4.83723 h 3.57421 z m -0.742186,-1.29557 h 1.490882 l 3.704417,9.72003 h -1.367184 l -0.885414,-2.49349 h -4.381499 l -0.885415,2.49349 h -1.386715 z"
             id="path1813" />
        </g>
        <g
           aria-label="T"
           id="text1131-7-1-6"
           style="font-style:normal;font-variant:normal;font-weight:normal;font-stretch:normal;font-size:13.3333px;line-height:1.25;font-family:sans-serif;-inkscape-font-specification:'sans-serif, Normal';font-variant-ligatures:normal;font-variant-caps:normal;font-variant-numeric:normal;font-variant-east-asian:normal;display:inline"
           transform="translate(221.22341,-3.5355339)">
          <path
             d="m 63.083878,71.91158 h 8.222635 v 1.106768 h -3.450512 v 8.613259 H 66.53439 v -8.613259 h -3.450512 z"
             id="path1819" />
        </g>
      </g>
      <g
         aria-label="T"
         id="text1131-7-1-6-7"
         style="font-style:normal;font-variant:normal;font-weight:normal;font-stretch:normal;font-size:13.3333px;line-height:1.25;font-family:sans-serif;-inkscape-font-specification:'sans-serif, Normal';font-variant-ligatures:normal;font-variant-caps:normal;font-variant-numeric:normal;font-variant-east-asian:normal;display:inline">
        <path
           d="m 35.063828,72.396351 h 8.222635 v 1.106768 h -3.450512 v 8.61326 H 38.51434 v -8.61326 h -3.450512 z"
           id="path1822" />
      </g>
      <path
         id="rect855-0-7-5"
         style="display:inline;fill:#fdca40;fill-opacity:1;fill-rule:evenodd;stroke:#31393c;stroke-width:2.49466;stroke-linecap:round;stroke-linejoin:round;stroke-opacity:1;paint-order:stroke fill markers"
         d="m 247.38406,95.911751 -2.7968,0.008 c -5.0522,-12.025337 -9.36461,-8.744117 -12.68796,0.03663 l -2.89966,0.0083 0.0984,34.580669 18.38442,-0.053 -0.0555,-19.5018 z"
         sodipodi:nodetypes="cccccccc" />
      <path
         id="rect855-0-9"
         style="display:inline;fill:#f79824;fill-opacity:1;fill-rule:evenodd;stroke:#31393c;stroke-width:2.5;stroke-linecap:round;stroke-linejoin:round;stroke-opacity:1;paint-order:stroke fill markers"
         d="m 229.01583,95.919751 h 2.81245 c 2.5865,-10.963837 9.70017,-10.684887 12.75898,0 h 2.91589 V 61.383824 h -18.48732 z"
         sodipodi:nodetypes="ccccccc" />
      <g
         aria-label="A"
         id="text1131-7"
         style="font-style:normal;font-variant:normal;font-weight:normal;font-stretch:normal;font-size:13.3333px;line-height:1.25;font-family:sans-serif;-inkscape-font-specification:'sans-serif, Normal';font-variant-ligatures:normal;font-variant-caps:normal;font-variant-numeric:normal;font-variant-east-asian:normal;display:inline"
         transform="translate(85.13707,-0.008303)">
        <path
           d="m 152.53303,71.691913 -1.78385,4.837228 h 3.57421 z m -0.74218,-1.295569 h 1.49088 l 3.70442,9.720027 h -1.36719 l -0.88541,-2.493483 h -4.3815 l -0.88541,2.493483 h -1.38672 z"
           id="path1828" />
      </g>
      <g
         aria-label="T"
         id="text1131-7-1-6-2"
         style="font-style:normal;font-variant:normal;font-weight:normal;font-stretch:normal;font-size:13.3333px;line-height:1.25;font-family:sans-serif;-inkscape-font-specification:'sans-serif, Normal';font-variant-ligatures:normal;font-variant-caps:normal;font-variant-numeric:normal;font-variant-east-asian:normal;display:inline"
         transform="translate(85.13707,-0.008303)">
        <path
           d="m 148.92679,110.29738 h 8.22263 v 1.10676 h -3.45051 v 8.61326 h -1.32161 v -8.61326 h -3.45051 z"
           id="path1831" />
      </g>
      <g
         id="g418"
         transform="translate(-85.25615,-0.106048)">
        <path
           id="rect855-0-7-5-8"
           style="display:inline;fill:#fdca40;fill-opacity:1;fill-rule:evenodd;stroke:#31393c;stroke-width:2.49466;stroke-linecap:round;stroke-linejoin:round;stroke-opacity:1;paint-order:stroke fill markers"
           d="m 218.89673,95.911751 -2.7968,0.008 c -5.0522,-12.025337 -9.3646,-8.744117 -12.68796,0.03663 l -2.89966,0.0083 0.0984,34.580669 18.38442,-0.053 -0.0555,-19.5018 z"
           sodipodi:nodetypes="cccccccc" />
        <path
           id="rect855-0-9-2"
           style="display:inline;fill:#f79824;fill-opacity:1;fill-rule:evenodd;stroke:#31393c;stroke-width:2.5;stroke-linecap:round;stroke-linejoin:round;stroke-opacity:1;paint-order:stroke fill markers"
           d="m 200.5285,95.919751 h 2.81246 c 2.58649,-10.963837 9.70016,-10.684887 12.75897,0 h 2.9159 V 61.383824 H 200.5285 Z"
           sodipodi:nodetypes="ccccccc" />
        <g
           aria-label="A"
           id="text1131"
           style="font-style:normal;font-variant:normal;font-weight:normal;font-stretch:normal;font-size:13.3333px;line-height:1.25;font-family:sans-serif;-inkscape-font-specification:'sans-serif, Normal';font-variant-ligatures:normal;font-variant-caps:normal;font-variant-numeric:normal;font-variant-east-asian:normal"
           transform="translate(85.13707,-0.008303)">
          <path
             d="m 124.78574,71.84206 -1.78385,4.837227 h 3.57421 z m -0.74218,-1.29557 h 1.49088 l 3.70442,9.720028 h -1.36719 l -0.88541,-2.493484 h -4.3815 l -0.88542,2.493484 h -1.38671 z"
             id="path1825" />
        </g>
        <g
           aria-label="T"
           id="text1131-7-1-6-2-1"
           style="font-style:normal;font-variant:normal;font-weight:normal;font-stretch:normal;font-size:13.3333px;line-height:1.25;font-family:sans-serif;-inkscape-font-specification:'sans-serif, Normal';font-variant-ligatures:normal;font-variant-caps:normal;font-variant-numeric:normal;font-variant-east-asian:normal;display:inline"
           transform="translate(85.13707,-0.008303)">
          <path
             d="m 120.13745,110.80245 h 8.22264 v 1.10677 h -3.45052 v 8.61326 h -1.32161 v -8.61326 h -3.45051 z"
             id="path1834" />
        </g>
      </g>
      <g
         id="g372"
         transform="translate(113.66129,-0.106455)">
        <path
           id="rect855-0-7-5-0"
           style="display:inline;fill:#33a1fd;fill-opacity:1;fill-rule:evenodd;stroke:#31393c;stroke-width:2.49466;stroke-linecap:butt;stroke-linejoin:miter;stroke-opacity:1;paint-order:stroke fill markers"
           d="m 105.35455,96.025718 -2.7968,-0.008 -1.28946,9.239492 -9.632438,-0.10189 -1.76606,-9.174232 -2.89966,-0.0083 0.0984,-34.580662 18.384418,0.05303 -0.0555,19.501801 z"
           sodipodi:nodetypes="cccccccccc" />
        <path
           id="rect855-0-9-6"
           style="display:inline;fill:#217ffc;fill-opacity:1;fill-rule:evenodd;stroke:#31393c;stroke-width:2.5;stroke-linecap:butt;stroke-linejoin:miter;stroke-opacity:1;paint-order:stroke fill markers"
           d="m 86.986322,96.017718 h 2.81246 c 0.68481,2.902837 1.83707,9.137602 1.83707,9.137602 l 9.632438,0.10189 1.28946,-9.239492 2.7968,0.008 0.11909,34.527932 H 86.986322 Z"
           sodipodi:nodetypes="ccccccccc" />
        <g
           aria-label="G"
           id="text1131-7-1-6-2-0"
           style="font-style:normal;font-variant:normal;font-weight:normal;font-stretch:normal;font-size:13.3333px;line-height:1.25;font-family:sans-serif;-inkscape-font-specification:'sans-serif, Normal';font-variant-ligatures:normal;font-variant-caps:normal;font-variant-numeric:normal;font-variant-east-asian:normal;display:inline"
           inkscape:transform-center-x="2.5253814"
           inkscape:transform-center-y="-0.50507627">
          <path
             d="m 99.343649,119.13576 v -2.61067 h -2.148433 v -1.08073 h 3.450514 v 4.17317 q -0.761718,0.54036 -1.679685,0.82031 -0.917966,0.27344 -1.95963,0.27344 -2.27864,0 -3.567699,-1.32812 -1.282549,-1.33464 -1.282549,-3.71093 0,-2.38281 1.282549,-3.71093 1.289059,-1.33463 3.567699,-1.33463 0.950518,0 1.803381,0.23437 0.859373,0.23438 1.582024,0.6901 v 1.39974 q -0.729162,-0.61849 -1.549472,-0.93099 -0.820311,-0.3125 -1.725256,-0.3125 -1.78385,0 -2.682285,0.9961 -0.891925,0.99609 -0.891925,2.96874 0,1.96614 0.891925,2.96223 0.898435,0.99609 2.682285,0.99609 0.696613,0 1.243486,-0.11719 0.546874,-0.12369 0.983071,-0.3776 z"
             id="path1837" />
        </g>
        <g
           aria-label="C"
           id="text1131-7-1-6-2-0-5-0-6-2-7"
           style="font-style:normal;font-variant:normal;font-weight:normal;font-stretch:normal;font-size:13.3333px;line-height:1.25;font-family:sans-serif;-inkscape-font-specification:'sans-serif, Normal';font-variant-ligatures:normal;font-variant-caps:normal;font-variant-numeric:normal;font-variant-east-asian:normal;display:inline"
           inkscape:transform-center-x="-1.0101525"
           inkscape:transform-center-y="-1.0101525">
          <path
             d="m 99.8982,71.608701 v 1.386715 q -0.664061,-0.618488 -1.419268,-0.924477 -0.748696,-0.305989 -1.595048,-0.305989 -1.666662,0 -2.552077,1.022133 -0.885414,1.015623 -0.885414,2.942701 0,1.920568 0.885414,2.942701 0.885415,1.015623 2.552077,1.015623 0.846352,0 1.595048,-0.305989 0.755207,-0.305989 1.419268,-0.924477 v 1.373694 q -0.690103,0.468749 -1.46484,0.703124 -0.768228,0.234374 -1.6276,0.234374 -2.207026,0 -3.476554,-1.347653 -1.269528,-1.354163 -1.269528,-3.691397 0,-2.343744 1.269528,-3.691397 1.269528,-1.354163 3.476554,-1.354163 0.872393,0 1.64062,0.234374 0.774738,0.227864 1.45182,0.690103 z"
             id="path1840" />
        </g>
      </g>
      <path
         id="rect855-0-7-5-0-6"
         style="display:inline;fill:#33a1fd;fill-opacity:1;fill-rule:evenodd;stroke:#31393c;stroke-width:2.49466;stroke-linecap:butt;stroke-linejoin:miter;stroke-opacity:1;paint-order:stroke fill markers"
         d="m 76.87174,95.911563 -2.7968,0.008 -1.28946,-9.239486 -9.63245,0.10189 -1.76605,9.174226 -2.89966,0.0083 0.0984,34.580667 18.38442,-0.053 -0.0555,-19.5018 z"
         sodipodi:nodetypes="cccccccccc" />
      <path
         id="rect855-0-9-6-9"
         style="display:inline;fill:#217ffc;fill-opacity:1;fill-rule:evenodd;stroke:#31393c;stroke-width:2.5;stroke-linecap:butt;stroke-linejoin:miter;stroke-opacity:1;paint-order:stroke fill markers"
         d="m 58.50351,95.919563 h 2.81245 c 0.68482,-2.902837 1.83707,-9.137596 1.83707,-9.137596 l 9.63245,-0.10189 1.28946,9.239486 2.7968,-0.008 0.11909,-34.527926 H 58.50351 Z"
         sodipodi:nodetypes="ccccccccc" />
      <path
         id="rect855-0-7-5-0-6-7"
         style="display:inline;fill:#33a1fd;fill-opacity:1;fill-rule:evenodd;stroke:#31393c;stroke-width:2.49466;stroke-linecap:butt;stroke-linejoin:miter;stroke-opacity:1;paint-order:stroke fill markers"
         d="m 105.25616,95.858633 -2.7968,0.008 -1.28946,-9.239486 -9.63245,0.10189 -1.76605,9.174226 -2.89966,0.0083 0.0984,34.580667 18.38442,-0.053 -0.0555,-19.5018 z"
         sodipodi:nodetypes="cccccccccc" />
      <path
         id="rect855-0-9-6-9-5"
         style="display:inline;fill:#217ffc;fill-opacity:1;fill-rule:evenodd;stroke:#31393c;stroke-width:2.5;stroke-linecap:butt;stroke-linejoin:miter;stroke-opacity:1;paint-order:stroke fill markers"
         d="m 86.88793,95.866633 h 2.81245 c 0.68482,-2.902837 1.83707,-9.137596 1.83707,-9.137596 l 9.63245,-0.10189 1.28946,9.239486 2.7968,-0.008 0.11909,-34.527926 H 86.88793 Z"
         sodipodi:nodetypes="ccccccccc" />
      <g
         aria-label="G"
         id="text1131-7-1-6-2-0-5"
         style="font-style:normal;font-variant:normal;font-weight:normal;font-stretch:normal;font-size:13.3333px;line-height:1.25;font-family:sans-serif;-inkscape-font-specification:'sans-serif, Normal';font-variant-ligatures:normal;font-variant-caps:normal;font-variant-numeric:normal;font-variant-east-asian:normal;display:inline"
         inkscape:transform-center-x="2.5253814"
         inkscape:transform-center-y="-0.50507627"
         transform="translate(-113.75967,52.044512)">
        <path
           d="m 184.26508,26.218067 v -2.610671 h -2.14843 V 22.52667 h 3.45051 v 4.173166 q -0.76172,0.540364 -1.67968,0.820311 -0.91797,0.273437 -1.95963,0.273437 -2.27864,0 -3.5677,-1.328122 -1.28255,-1.334632 -1.28255,-3.710928 0,-2.382807 1.28255,-3.710928 1.28906,-1.334632 3.5677,-1.334632 0.95052,0 1.80338,0.234374 0.85937,0.234375 1.58203,0.690103 v 1.399736 q -0.72917,-0.618488 -1.54948,-0.930988 -0.82031,-0.312499 -1.72526,-0.312499 -1.78385,0 -2.68228,0.996091 -0.89193,0.996092 -0.89193,2.968743 0,1.966141 0.89193,2.962232 0.89843,0.996091 2.68228,0.996091 0.69662,0 1.24349,-0.117187 0.54687,-0.123698 0.98307,-0.377603 z"
           id="path1843" />
      </g>
      <g
         aria-label="G"
         id="text1131-7-1-6-2-0-5-0"
         style="font-style:normal;font-variant:normal;font-weight:normal;font-stretch:normal;font-size:13.3333px;line-height:1.25;font-family:sans-serif;-inkscape-font-specification:'sans-serif, Normal';font-variant-ligatures:normal;font-variant-caps:normal;font-variant-numeric:normal;font-variant-east-asian:normal;display:inline"
         inkscape:transform-center-x="2.5253814"
         inkscape:transform-center-y="-0.50507627"
         transform="translate(-113.75967,52.044512)">
        <path
           d="m 212.54935,26.218074 v -2.61067 h -2.14843 v -1.080726 h 3.45051 v 4.173166 q -0.76171,0.540363 -1.67968,0.820311 -0.91797,0.273436 -1.95963,0.273436 -2.27864,0 -3.5677,-1.328121 -1.28255,-1.334632 -1.28255,-3.710928 0,-2.382807 1.28255,-3.710929 1.28906,-1.334632 3.5677,-1.334632 0.95052,0 1.80338,0.234375 0.85937,0.234374 1.58203,0.690102 v 1.399736 q -0.72917,-0.618488 -1.54948,-0.930987 -0.82031,-0.312499 -1.72525,-0.312499 -1.78385,0 -2.68229,0.996091 -0.89192,0.996091 -0.89192,2.968743 0,1.96614 0.89192,2.962232 0.89844,0.996091 2.68229,0.996091 0.69661,0 1.24348,-0.117187 0.54688,-0.123698 0.98307,-0.377604 z"
           id="path1846" />
      </g>
      <g
         id="g398"
         transform="translate(56.99084,-0.04493)">
        <path
           id="rect855-0-7-5-0-62"
           style="display:inline;fill:#33a1fd;fill-opacity:1;fill-rule:evenodd;stroke:#31393c;stroke-width:2.49466;stroke-linecap:butt;stroke-linejoin:miter;stroke-opacity:1;paint-order:stroke fill markers"
           d="m 133.64058,95.911263 -2.7968,-0.008 -1.28946,9.239487 -9.63244,-0.10189 -1.76606,-9.174227 -2.89966,-0.008 0.0984,-34.580665 18.38442,0.05303 -0.0555,19.501805 z"
           sodipodi:nodetypes="cccccccccc" />
        <path
           id="rect855-0-9-6-8"
           style="display:inline;fill:#217ffc;fill-opacity:1;fill-rule:evenodd;stroke:#31393c;stroke-width:2.5;stroke-linecap:butt;stroke-linejoin:miter;stroke-opacity:1;paint-order:stroke fill markers"
           d="m 115.27235,95.903263 h 2.81246 c 0.68481,2.90283 1.83707,9.137597 1.83707,9.137597 l 9.63244,0.10189 1.28946,-9.239487 2.7968,0.008 0.11909,34.527927 h -18.48732 z"
           sodipodi:nodetypes="ccccccccc" />
        <g
           aria-label="G"
           id="text1131-7-1-6-2-0-5-0-6"
           style="font-style:normal;font-variant:normal;font-weight:normal;font-stretch:normal;font-size:13.3333px;line-height:1.25;font-family:sans-serif;-inkscape-font-specification:'sans-serif, Normal';font-variant-ligatures:normal;font-variant-caps:normal;font-variant-numeric:normal;font-variant-east-asian:normal;display:inline"
           inkscape:transform-center-x="-1.0101525"
           inkscape:transform-center-y="-1.0101525"
           transform="translate(-113.75967,52.044512)">
          <path
             d="m 241.05443,66.743457 v -2.61067 H 238.906 v -1.080726 h 3.45051 v 4.173166 q -0.76171,0.540363 -1.67968,0.820311 -0.91797,0.273436 -1.95963,0.273436 -2.27864,0 -3.5677,-1.328121 -1.28255,-1.334632 -1.28255,-3.710928 0,-2.382807 1.28255,-3.710929 1.28906,-1.334632 3.5677,-1.334632 0.95052,0 1.80338,0.234375 0.85937,0.234374 1.58203,0.690102 v 1.399736 q -0.72917,-0.618488 -1.54948,-0.930987 -0.82031,-0.312499 -1.72525,-0.312499 -1.78385,0 -2.68229,0.996091 -0.89192,0.996091 -0.89192,2.968743 0,1.96614 0.89192,2.962232 0.89844,0.996091 2.68229,0.996091 0.69661,0 1.24348,-0.117187 0.54688,-0.123698 0.98307,-0.377604 z"
             id="path1849" />
        </g>
        <g
           aria-label="C"
           id="text1131-7-1-6-2-0-5-0-6-2"
           style="font-style:normal;font-variant:normal;font-weight:normal;font-stretch:normal;font-size:13.3333px;line-height:1.25;font-family:sans-serif;-inkscape-font-specification:'sans-serif, Normal';font-variant-ligatures:normal;font-variant-caps:normal;font-variant-numeric:normal;font-variant-east-asian:normal;display:inline"
           inkscape:transform-center-x="-1.0101525"
           inkscape:transform-center-y="-1.0101525"
           transform="translate(-113.75967,52.044512)">
          <path
             d="m 240.99989,18.51418 v 1.386716 q -0.66406,-0.618488 -1.41927,-0.924477 -0.74869,-0.305989 -1.59504,-0.305989 -1.66667,0 -2.55208,1.022133 -0.88541,1.015622 -0.88541,2.942701 0,1.920568 0.88541,2.942701 0.88541,1.015622 2.55208,1.015622 0.84635,0 1.59504,-0.305989 0.75521,-0.305989 1.41927,-0.924477 v 1.373695 q -0.6901,0.468749 -1.46484,0.703123 -0.76823,0.234374 -1.6276,0.234374 -2.20702,0 -3.47655,-1.347652 -1.26953,-1.354164 -1.26953,-3.691397 0,-2.343744 1.26953,-3.691397 1.26953,-1.354164 3.47655,-1.354164 0.8724,0 1.64062,0.234375 0.77474,0.227864 1.45182,0.690102 z"
             id="path1852" />
        </g>
      </g>
      <g
         aria-label="C"
         id="text1131-7-1-6-2-0-5-0-6-2-7-2"
         style="font-style:normal;font-variant:normal;font-weight:normal;font-stretch:normal;font-size:13.3333px;line-height:1.25;font-family:sans-serif;-inkscape-font-specification:'sans-serif, Normal';font-variant-ligatures:normal;font-variant-caps:normal;font-variant-numeric:normal;font-variant-east-asian:normal;display:inline"
         inkscape:transform-center-x="-1.0101525"
         inkscape:transform-center-y="-1.0101525"
         transform="translate(-113.75967,52.044512)">
        <path
           d="m 213.52591,59.039556 v 1.386715 q -0.66406,-0.618488 -1.41927,-0.924477 -0.7487,-0.305989 -1.59505,-0.305989 -1.66666,0 -2.55207,1.022133 -0.88542,1.015623 -0.88542,2.942701 0,1.920568 0.88542,2.942701 0.88541,1.015622 2.55207,1.015622 0.84635,0 1.59505,-0.305988 0.75521,-0.305989 1.41927,-0.924477 v 1.373694 q -0.6901,0.468749 -1.46484,0.703123 -0.76823,0.234375 -1.6276,0.234375 -2.20703,0 -3.47656,-1.347653 -1.26952,-1.354163 -1.26952,-3.691397 0,-2.343744 1.26952,-3.691397 1.26953,-1.354163 3.47656,-1.354163 0.87239,0 1.64062,0.234374 0.77474,0.227864 1.45182,0.690103 z"
           id="path1855" />
      </g>
      <g
         aria-label="C"
         id="text1131-7-1-6-2-0-5-0-6-2-7-2-8"
         style="font-style:normal;font-variant:normal;font-weight:normal;font-stretch:normal;font-size:13.3333px;line-height:1.25;font-family:sans-serif;-inkscape-font-specification:'sans-serif, Normal';font-variant-ligatures:normal;font-variant-caps:normal;font-variant-numeric:normal;font-variant-east-asian:normal;display:inline"
         inkscape:transform-center-x="-1.0101525"
         inkscape:transform-center-y="-1.0101525"
         transform="translate(-113.75967,52.044512)">
        <path
           d="m 185.74672,58.534497 v 1.386716 q -0.66406,-0.618488 -1.41927,-0.924477 -0.7487,-0.305989 -1.59505,-0.305989 -1.66666,0 -2.55207,1.022133 -0.88542,1.015622 -0.88542,2.942701 0,1.920568 0.88542,2.942701 0.88541,1.015622 2.55207,1.015622 0.84635,0 1.59505,-0.305989 0.75521,-0.305989 1.41927,-0.924477 v 1.373695 q -0.6901,0.468749 -1.46484,0.703123 -0.76823,0.234374 -1.6276,0.234374 -2.20703,0 -3.47656,-1.347652 -1.26952,-1.354164 -1.26952,-3.691397 0,-2.343744 1.26952,-3.691397 1.26953,-1.354163 3.47656,-1.354163 0.87239,0 1.64062,0.234374 0.77474,0.227864 1.45182,0.690102 z"
           id="path1858" />
      </g>
      <g
         aria-label="Palindromic"
         id="text1783"
         style="font-style:normal;font-variant:normal;font-weight:500;font-stretch:normal;font-size:16px;line-height:1.25;font-family:Montserrat;-inkscape-font-specification:'Montserrat, Medium';font-variant-ligatures:normal;font-variant-caps:normal;font-variant-numeric:normal;font-variant-east-asian:normal">
        <path
           d="m 92.697765,19.104577 q 2.176,0 3.424,1.04 1.248,1.04 1.248,2.864 0,1.824 -1.248,2.864 -1.248,1.04 -3.424,1.04 h -2.768 v 3.392 h -1.6 v -11.2 z m -0.048,6.416 q 1.52,0 2.32,-0.64 0.8,-0.656 0.8,-1.872 0,-1.216 -0.8,-1.856 -0.8,-0.656 -2.32,-0.656 h -2.72 v 5.024 z"
           id="path1911" />
        <path
           d="m 102.50572,21.744577 q 1.76,0 2.688,0.864 0.944,0.864 0.944,2.576 v 5.12 h -1.456 v -1.12 q -0.384,0.592 -1.104,0.912 -0.704,0.304 -1.68,0.304 -1.424,0 -2.288004,-0.688 -0.848,-0.688 -0.848,-1.808 0,-1.12 0.816,-1.792 0.816004,-0.688 2.592004,-0.688 h 2.432 v -0.304 q 0,-0.992 -0.576,-1.52 -0.576,-0.528 -1.696,-0.528 -0.752,0 -1.472,0.256 -0.72,0.24 -1.216004,0.656 l -0.64,-1.152 q 0.656,-0.528 1.568004,-0.8 0.912,-0.288 1.936,-0.288 z m -0.352,7.472 q 0.88,0 1.52,-0.384 0.64,-0.4 0.928,-1.12 v -1.184 h -2.368 q -1.952,0 -1.952,1.312 0,0.64 0.496,1.008 0.496,0.368 1.376,0.368 z"
           id="path1913" />
        <path
           d="m 108.98571,18.432577 h 1.536 v 11.872 h -1.536 z"
           id="path1915" />
        <path
           d="m 113.4497,21.824577 h 1.536 v 8.48 h -1.536 z m 0.768,-1.632 q -0.448,0 -0.752,-0.288 -0.288,-0.288 -0.288,-0.704 0,-0.416 0.288,-0.704 0.304,-0.304 0.752,-0.304 0.448,0 0.736,0.288 0.304,0.272 0.304,0.688 0,0.432 -0.304,0.736 -0.288,0.288 -0.736,0.288 z"
           id="path1917" />
        <path
           d="m 122.44169,21.744577 q 1.616,0 2.56,0.944 0.96,0.928 0.96,2.736 v 4.88 h -1.536 v -4.704 q 0,-1.232 -0.592,-1.856 -0.592,-0.624 -1.696,-0.624 -1.248,0 -1.968,0.736 -0.72,0.72 -0.72,2.08 v 4.368 h -1.536 v -8.48 h 1.472 v 1.28 q 0.464,-0.656 1.248,-1.008 0.8,-0.352 1.808,-0.352 z"
           id="path1919" />
        <path
           d="m 136.85766,18.432577 v 11.872 h -1.472 v -1.344 q -0.512,0.704 -1.296,1.072 -0.784,0.368 -1.728,0.368 -1.232,0 -2.208,-0.544 -0.976,-0.544 -1.536,-1.52 -0.544,-0.992 -0.544,-2.272 0,-1.28 0.544,-2.256 0.56,-0.976 1.536,-1.52 0.976,-0.544 2.208,-0.544 0.912,0 1.68,0.352 0.768,0.336 1.28,1.008 v -4.672 z m -4.368,10.624 q 0.8,0 1.456,-0.368 0.656,-0.384 1.024,-1.056 0.368,-0.688 0.368,-1.568 0,-0.88 -0.368,-1.552 -0.368,-0.688 -1.024,-1.056 -0.656,-0.368 -1.456,-0.368 -0.816,0 -1.472,0.368 -0.64,0.368 -1.024,1.056 -0.368,0.672 -0.368,1.552 0,0.88 0.368,1.568 0.384,0.672 1.024,1.056 0.656,0.368 1.472,0.368 z"
           id="path1921" />
        <path
           d="m 141.24164,23.248577 q 0.4,-0.736 1.184,-1.12 0.784,-0.384 1.904,-0.384 v 1.488 q -0.128,-0.016 -0.352,-0.016 -1.248,0 -1.968,0.752 -0.704,0.736 -0.704,2.112 v 4.224 h -1.536 v -8.48 h 1.472 z"
           id="path1923" />
        <path
           d="m 149.76963,30.400577 q -1.264,0 -2.272,-0.56 -1.008,-0.56 -1.584,-1.536 -0.56,-0.992 -0.56,-2.24 0,-1.248 0.56,-2.224 0.576,-0.992 1.584,-1.536 1.008,-0.56 2.272,-0.56 1.264,0 2.256,0.56 1.008,0.544 1.568,1.536 0.576,0.976 0.576,2.224 0,1.248 -0.576,2.24 -0.56,0.976 -1.568,1.536 -0.992,0.56 -2.256,0.56 z m 0,-1.344 q 0.816,0 1.456,-0.368 0.656,-0.384 1.024,-1.056 0.368,-0.688 0.368,-1.568 0,-0.88 -0.368,-1.552 -0.368,-0.688 -1.024,-1.056 -0.64,-0.368 -1.456,-0.368 -0.816,0 -1.472,0.368 -0.64,0.368 -1.024,1.056 -0.368,0.672 -0.368,1.552 0,0.88 0.368,1.568 0.384,0.672 1.024,1.056 0.656,0.368 1.472,0.368 z"
           id="path1925" />
        <path
           d="m 166.9056,21.744577 q 1.6,0 2.528,0.928 0.944,0.928 0.944,2.752 v 4.88 h -1.536 v -4.704 q 0,-1.232 -0.576,-1.856 -0.56,-0.624 -1.616,-0.624 -1.168,0 -1.856,0.736 -0.688,0.72 -0.688,2.08 v 4.368 h -1.536 v -4.704 q 0,-1.232 -0.576,-1.856 -0.56,-0.624 -1.616,-0.624 -1.168,0 -1.856,0.736 -0.688,0.72 -0.688,2.08 v 4.368 h -1.536 v -8.48 h 1.472 v 1.264 q 0.464,-0.656 1.216,-0.992 0.752,-0.352 1.712,-0.352 0.992,0 1.76,0.4 0.768,0.4 1.184,1.168 0.48,-0.736 1.328,-1.152 0.864,-0.416 1.936,-0.416 z"
           id="path1927" />
        <path
           d="m 173.20959,21.824577 h 1.536 v 8.48 h -1.536 z m 0.768,-1.632 q -0.448,0 -0.752,-0.288 -0.288,-0.288 -0.288,-0.704 0,-0.416 0.288,-0.704 0.304,-0.304 0.752,-0.304 0.448,0 0.736,0.288 0.304,0.272 0.304,0.688 0,0.432 -0.304,0.736 -0.288,0.288 -0.736,0.288 z"
           id="path1929" />
        <path
           d="m 181.36958,30.400577 q -1.296,0 -2.32,-0.56 -1.008,-0.56 -1.584,-1.536 -0.576,-0.992 -0.576,-2.24 0,-1.248 0.576,-2.224 0.576,-0.992 1.584,-1.536 1.024,-0.56 2.32,-0.56 1.152,0 2.048,0.464 0.912,0.464 1.408,1.344 l -1.168,0.752 q -0.4,-0.608 -0.992,-0.912 -0.592,-0.304 -1.312,-0.304 -0.832,0 -1.504,0.368 -0.656,0.368 -1.04,1.056 -0.368,0.672 -0.368,1.552 0,0.896 0.368,1.584 0.384,0.672 1.04,1.04 0.672,0.368 1.504,0.368 0.72,0 1.312,-0.304 0.592,-0.304 0.992,-0.912 l 1.168,0.736 q -0.496,0.88 -1.408,1.36 -0.896,0.464 -2.048,0.464 z"
           id="path1931" />
      </g>
    </g>
  </g>
</svg>
